<svg width="632" height="511" viewBox="0 0 632 511" fill="none" xmlns="http://www.w3.org/2000/svg">
<path d="M335.501 70.0825C342.302 56.4064 352.63 44.9672 365.546 36.8581C366.815 36.0701 365.647 34.0619 364.379 34.8499C351.132 43.1624 340.474 54.8811 333.496 68.9132C332.811 70.2605 334.816 71.4298 335.501 70.0825Z" fill="white"/>
<path d="M413.454 248.152C415.89 214.496 393.255 181.271 364.631 167.163C361.611 165.689 358.414 168.815 359.505 172.171C360.343 174.713 361.916 177.179 363.591 179.212C365.824 181.932 370.112 185.974 372.574 189.914C373.843 191.948 372.066 194.566 369.859 193.905C351.613 188.364 334.967 178.501 334.967 178.501C326.72 172.578 316.595 167.341 309.134 165.841C305.429 165.104 302.815 169.527 305.023 172.806C308.297 177.687 312.534 183.28 315.376 184.424C310.834 183.712 306.419 178.78 301.521 180.433C299.491 181.119 297.969 183.076 297.943 185.389C297.867 192.202 309.667 192.99 312.205 199.193C309.109 198.379 302.536 197.185 299.466 196.32C299.39 196.295 299.314 196.269 299.212 196.244C292.716 194.49 289.747 204.506 295.939 207.276L326.39 220.927C329.968 222.529 328.496 228.274 324.664 227.638L306.064 224.562C303.78 224.232 301.496 225.503 300.684 227.816C299.111 232.214 304.287 234.756 308.119 236.256C318.498 240.323 326.72 250.339 329.13 261.905C329.587 264.091 340.905 433.037 341.032 435.198C343.722 476.887 402.289 501.164 425.001 456.5L413.454 248.152Z" fill="#F6A460"/>
<path d="M357.324 224.537C363.237 228.808 370.976 232.85 374.732 239.306C378.31 245.458 378.919 252.906 379.503 259.821C379.63 261.295 381.939 261.321 381.812 259.821C381.203 252.474 380.492 244.645 376.711 238.137C372.727 231.274 364.709 227.054 358.466 222.529C357.299 221.639 356.132 223.648 357.324 224.537Z" fill="#4F3422"/>
<path d="M371.942 172.223C368.947 171.841 366.486 169.884 365.039 167.266C364.304 165.969 362.299 167.139 363.035 168.435C364.913 171.816 368.11 174.053 371.942 174.536C373.439 174.739 373.413 172.401 371.942 172.223Z" fill="#4F3422"/>
<path d="M340.117 197.184C330.829 191.591 321.542 185.999 312.254 180.406C310.96 179.644 309.793 181.652 311.087 182.414C320.375 188.007 329.662 193.599 338.95 199.192C340.218 199.954 341.411 197.946 340.117 197.184Z" fill="#4F3422"/>
<path d="M336.005 209.081C326.921 205.573 318.115 201.48 309.563 196.828C308.244 196.116 307.077 198.125 308.396 198.836C317.125 203.59 326.134 207.759 335.396 211.318C336.792 211.852 337.375 209.615 336.005 209.081Z" fill="#4F3422"/>
<path d="M360.163 197.139C358.108 199.248 356.585 201.689 355.494 204.409C354.936 205.807 357.194 206.392 357.727 205.019C358.666 202.68 360.037 200.57 361.813 198.765C362.853 197.723 361.204 196.071 360.163 197.139Z" fill="white"/>
<path d="M349.583 209.437C347.858 211.42 346.157 213.402 344.432 215.36C343.467 216.478 345.092 218.131 346.081 217.012C347.807 215.029 349.507 213.047 351.232 211.089C352.197 209.945 350.547 208.293 349.583 209.437Z" fill="white"/>
<path d="M332.912 233.078C332.303 235.137 331.364 237.018 330.095 238.772C329.207 239.992 331.237 241.136 332.1 239.941C333.47 238.035 334.485 235.925 335.145 233.688C335.576 232.264 333.343 231.654 332.912 233.078Z" fill="white"/>
<path d="M301.928 257.912C316.9 230.077 310.277 192.988 291.22 169.932C289.215 167.492 285.256 168.966 284.926 172.245C284.673 174.736 285.079 177.456 285.713 179.846C286.576 183.023 288.682 188.133 289.291 192.454C289.596 194.691 287.083 196.242 285.459 194.819C271.985 183.074 261.53 168.229 261.53 168.229C256.734 159.993 250.085 151.629 244.3 147.486C241.432 145.427 237.473 148.198 238.108 151.858C239.047 157.298 240.519 163.704 242.523 165.763C238.92 163.424 237.042 157.501 232.221 157.018C230.216 156.815 228.16 157.934 227.272 159.866C224.582 165.661 234.378 170.873 234.175 177.151C231.84 175.27 226.689 171.737 224.379 169.805C224.329 169.754 224.253 169.703 224.202 169.652C219.33 165.661 212.935 173.084 217.173 177.838L237.956 201.224C240.392 203.97 236.941 208.317 233.921 206.309L219.203 196.547C217.376 195.378 214.94 195.607 213.366 197.259C210.347 200.411 213.798 204.58 216.488 207.325C223.821 214.799 226.993 226.518 224.608 237.321C224.151 239.381 121.772 463.419 121.062 465.3C107.384 501.956 161.486 526.462 198.002 497L301.928 257.912Z" fill="#4F3422"/>
<path d="M262.875 216.097C266.326 222.096 271.502 228.655 272.162 235.696C272.797 242.28 270.437 248.864 268.305 254.965C267.797 256.388 270.056 256.999 270.538 255.575C272.898 248.839 275.334 241.645 274.344 234.425C273.355 227.358 268.356 220.978 264.879 214.928C264.143 213.631 262.139 214.801 262.875 216.097Z" fill="#4F3422"/>
<path d="M295.687 177.049C293.302 175.575 291.855 173.083 291.601 170.287C291.475 168.813 289.14 168.787 289.292 170.287C289.597 173.897 291.398 177.125 294.52 179.057C295.789 179.845 296.956 177.837 295.687 177.049Z" fill="#4F3422"/>
<path d="M258.891 186.198C253.08 177.86 247.295 169.497 241.484 161.159C240.646 159.939 238.616 161.108 239.479 162.328C245.29 170.666 251.076 179.029 256.887 187.367C257.724 188.587 259.729 187.443 258.891 186.198Z" fill="#4F3422"/>
<path d="M250.819 194.744C244.399 188.261 238.436 181.398 232.904 174.128C232.016 172.958 229.986 174.102 230.899 175.297C236.533 182.72 242.623 189.761 249.17 196.371C250.235 197.464 251.885 195.811 250.819 194.744Z" fill="#4F3422"/>
<path d="M275.992 193.731C273.429 194.748 271.145 196.197 269.141 198.128C268.075 199.171 269.699 200.823 270.79 199.781C272.465 198.154 274.419 196.832 276.601 195.993C277.997 195.434 277.388 193.171 275.992 193.731Z" fill="white"/>
<path d="M261.961 200.285C259.728 201.327 257.521 202.344 255.288 203.386C253.943 204.022 255.11 206.03 256.455 205.394C258.688 204.352 260.896 203.335 263.129 202.293C264.474 201.658 263.306 199.649 261.961 200.285Z" fill="white"/>
<path d="M238.869 213.937C237.55 215.462 236.053 216.733 234.302 217.75C233.008 218.487 234.175 220.495 235.469 219.758C237.372 218.665 239.072 217.267 240.494 215.589C241.483 214.445 239.834 212.793 238.869 213.937Z" fill="white"/>
<path d="M217.857 248.432C213.34 247.288 209.179 249.931 207.25 254.075C205.144 258.651 206.743 263.76 209.103 267.904C215.066 278.402 224.582 287.681 234.098 294.926C243.868 302.399 255.008 308.119 266.934 311.169C271.806 312.415 277.846 313.61 282.134 310.178C286.068 307.051 286.474 301.687 286.677 297.035C286.753 295.536 284.418 295.536 284.368 297.035C284.114 302.73 283.124 309.288 276.222 310.025C271.629 310.508 266.604 308.78 262.291 307.382C253.688 304.56 245.593 300.315 238.234 295.078C230.799 289.816 224.125 283.512 218.289 276.521C215.041 272.632 211.412 268.361 209.585 263.557C207.58 258.269 209.661 248.711 217.248 250.643C218.695 251.05 219.304 248.813 217.857 248.432Z" fill="#ED7E1C"/>
<path d="M216.208 257.125C208.772 257.1 197.176 260.837 200.094 270.7C201.261 274.589 204.687 277.36 207.91 279.52C212.554 282.622 217.578 285.291 222.678 287.579C242.319 296.4 265.031 299.933 286.347 296.273C290.432 295.586 295.127 294.112 296.979 289.994C298.476 286.689 297.664 282.723 294.442 280.868C293.147 280.131 291.98 282.139 293.274 282.876C296.446 284.706 295.685 289.028 293.249 291.138C291.346 292.815 288.707 293.451 286.271 293.908C281.17 294.849 275.866 295.179 270.69 295.256C260.59 295.383 250.49 294.112 240.746 291.519C230.976 288.926 221.587 285.011 212.883 279.851C208.925 277.487 203.291 274.462 202.175 269.556C200.348 261.472 210.523 259.413 216.208 259.438C217.705 259.464 217.705 257.125 216.208 257.125Z" fill="#ED7E1C"/>
<path d="M431.574 30.1222C429.29 26.7159 426.93 23.7163 424.545 21.098C384.933 -30.3529 328.979 23.6654 312.738 62.457C310.15 58.3643 307.13 54.2208 306.42 53.0768C300.253 43.0612 293.58 33.6302 285.028 25.8516C276.984 18.5305 267.62 12.4296 257.622 8.81995C243.538 1.93102 227.831 -0.458494 212.681 5.41362C192.482 13.2431 180.758 33.7065 183.956 56.7374C188.371 88.64 207.505 117.848 224.709 143.37C245.619 174.434 303.831 221.741 303.831 221.741C304.72 221.284 305.582 220.826 306.471 220.343C307.46 221.182 307.993 221.639 307.993 221.639C339.84 205.726 370.849 178.959 394.728 148.378C416.069 121.051 454.158 63.7534 431.574 30.1222Z" fill="#C2B1FF"/>
<path d="M492.805 355.605C490.217 351.359 428.959 250.059 426.396 245.814C413.582 224.715 404.218 202.015 395.159 179.035C385.998 155.775 390.946 128.067 407.847 110.044C408.608 109.23 411.755 107.756 412.846 107.502C415.104 106.993 417.185 109.408 417.21 111.721C417.236 114.035 415.891 116.145 414.521 118C412.237 121.127 409.724 124.203 408.506 127.889C407.288 131.575 407.694 136.1 410.613 138.642C414.825 138.921 416.754 133.557 417.413 129.389C419.824 114.314 421.803 98.6044 426.32 84.0131C427.386 80.5814 431.7 77.0734 434.999 78.4715C437.08 79.3612 437.663 82.0049 437.917 84.2673C439.414 97.8927 437.486 111.416 436.293 125.092C436.775 113.882 439.338 102.926 439.82 91.7155C439.947 88.6905 439.643 84.547 441.013 81.8524C442.383 79.1578 445.352 77.0225 448.296 77.5818C450.935 78.0902 452.813 80.5814 453.447 83.1743C454.107 85.7672 454.234 89.5294 453.955 92.1985C452.635 104.4 452.381 116.729 453.193 128.982C453.346 119.144 454.437 109.332 456.492 99.7229C457.177 96.5708 458.269 93.012 461.187 91.6647C464.689 90.0632 468.901 92.7578 470.424 96.2658C471.972 99.7738 471.591 103.79 471.388 107.629C469.713 137.574 471.769 186.076 584.285 333.184L492.805 355.605Z" fill="#4F3422"/>
<path d="M447.156 77.8637C445.785 83.2274 447.46 88.8453 451.698 92.455C452.84 93.4209 454.489 91.794 453.347 90.8026C449.744 87.7014 448.221 83.1003 449.414 78.4738C449.769 77.0248 447.536 76.4147 447.156 77.8637Z" fill="white"/>
<path d="M432.639 79.185C430.229 84.0403 431.599 89.7091 435.888 93.0137C437.08 93.9289 438.222 91.8952 437.055 91.0055C433.832 88.5143 432.868 83.9895 434.644 80.3544C435.304 79.0071 433.299 77.8378 432.639 79.185Z" fill="white"/>
<path d="M462.735 91.2575C461.872 94.613 462.177 98.0448 463.674 101.197C464.435 102.798 465.501 104.298 466.795 105.518C467.658 106.357 470.17 107.247 470.601 108.111C470.728 107.577 470.88 107.044 471.007 106.51C470.931 106.561 470.83 106.611 470.754 106.662C471.286 106.789 471.819 106.942 472.352 107.069C472.302 107.018 472.276 106.942 472.225 106.891C471.388 105.671 469.358 106.84 470.221 108.06C470.271 108.111 470.297 108.188 470.348 108.238C470.703 108.747 471.363 109.001 471.946 108.645C472.022 108.594 472.124 108.543 472.2 108.493C472.758 108.162 472.911 107.476 472.606 106.891C472.225 106.128 471.642 106.001 470.931 105.595C469.256 104.603 467.835 103.434 466.744 101.807C464.74 98.8582 464.131 95.274 464.993 91.8168C465.349 90.4187 463.115 89.8086 462.735 91.2575Z" fill="white"/>
<path d="M453.017 110.02C452.991 117.316 453.473 124.561 454.463 131.805C454.666 133.28 456.899 132.644 456.696 131.195C455.757 124.179 455.3 117.138 455.326 110.046C455.351 108.52 453.017 108.52 453.017 110.02Z" fill="white"/>
<path d="M437.054 99.0589C436.192 110.879 435.329 122.7 434.441 134.52C434.339 136.02 436.648 135.995 436.775 134.52C437.638 122.7 438.501 110.879 439.389 99.0589C439.491 97.5845 437.156 97.5845 437.054 99.0589Z" fill="white"/>
<path d="M468.167 140.978C465.578 141.08 463.117 141.588 460.706 142.554C459.336 143.088 459.945 145.351 461.315 144.791C463.523 143.902 465.781 143.393 468.141 143.292C469.664 143.241 469.664 140.902 468.167 140.978Z" fill="white"/>
<path d="M450.63 143.825C448.093 144.359 445.555 144.588 442.967 144.512C441.469 144.461 441.469 146.8 442.967 146.825C445.758 146.901 448.524 146.647 451.239 146.062C452.686 145.757 452.077 143.52 450.63 143.825Z" fill="white"/>
<path d="M432.282 144.007C429.262 144.287 426.242 144.566 423.223 144.846C421.751 144.973 421.726 147.312 423.223 147.159C426.242 146.88 429.262 146.6 432.282 146.32C433.754 146.193 433.754 143.88 432.282 144.007Z" fill="white"/>
<path d="M400.613 151.556C398.583 152.547 396.401 153.106 394.142 153.208C392.645 153.284 392.645 155.597 394.142 155.521C396.832 155.394 399.37 154.733 401.781 153.538C403.126 152.903 401.958 150.895 400.613 151.556Z" fill="white"/>
<path d="M404.068 116.628C409.396 118.992 415.157 114.29 413.406 108.545C412.974 107.121 410.716 107.731 411.173 109.155C412.264 112.764 408.838 116.222 405.26 114.62C403.89 114.035 402.697 116.018 404.068 116.628Z" fill="white"/>
<path d="M537.233 436L436.852 274.588L519.146 225.934L631.449 392.4L537.233 436Z" fill="#C2B1FF"/>
<path d="M420.078 217.927C420.687 221.587 418.2 225.07 414.546 225.68C410.892 226.29 407.416 223.799 406.807 220.138C406.198 216.478 408.684 212.995 412.339 212.385C415.993 211.775 419.469 214.266 420.078 217.927Z" fill="white"/>
<path d="M433.781 215.082C434.39 218.742 431.904 222.225 428.249 222.835C424.595 223.445 421.119 220.954 420.51 217.293C419.901 213.633 422.388 210.15 426.042 209.54C429.721 208.93 433.172 211.396 433.781 215.082Z" fill="white"/>
<path d="M456.16 205.93C456.769 209.591 454.282 213.074 450.628 213.684C446.974 214.294 443.498 211.803 442.889 208.142C442.28 204.481 444.766 200.999 448.421 200.389C452.1 199.779 455.551 202.27 456.16 205.93Z" fill="white"/>
<path d="M475.399 197.818C476.008 201.478 473.521 204.961 469.867 205.571C466.212 206.181 462.736 203.69 462.127 200.029C461.518 196.369 464.005 192.886 467.659 192.276C471.338 191.666 474.79 194.132 475.399 197.818Z" fill="white"/>
<path d="M491.918 186.585C492.527 190.245 490.04 193.728 486.386 194.338C482.732 194.948 479.255 192.457 478.646 188.796C478.037 185.136 480.524 181.653 484.178 181.043C487.833 180.433 491.309 182.924 491.918 186.585Z" fill="white"/>
<path d="M129.371 355.605C131.959 351.359 193.217 250.059 195.78 245.814C208.594 224.715 217.958 202.015 227.017 179.035C236.178 155.775 231.23 128.067 214.329 110.044C213.568 109.23 210.421 107.756 209.33 107.502C207.072 106.993 204.991 109.408 204.966 111.721C204.94 114.035 206.285 116.145 207.655 118C209.939 121.127 212.452 124.203 213.67 127.889C214.888 131.575 214.482 136.1 211.563 138.642C207.351 138.921 205.422 133.557 204.763 129.389C202.352 114.314 200.373 98.6044 195.856 84.0131C194.79 80.5814 190.476 77.0734 187.177 78.4715C185.096 79.3612 184.513 82.0049 184.259 84.2673C182.762 97.8927 184.69 111.416 185.883 125.092C185.401 113.882 182.838 102.926 182.356 91.7155C182.229 88.6905 182.533 84.547 181.163 81.8524C179.793 79.1578 176.824 77.0225 173.88 77.5818C171.241 78.0902 169.363 80.5814 168.729 83.1743C168.069 85.7672 167.942 89.5294 168.221 92.1985C169.541 104.4 169.795 116.729 168.983 128.982C168.83 119.144 167.739 109.332 165.684 99.7229C164.999 96.5708 163.907 93.012 160.989 91.6647C157.487 90.0632 153.275 92.7578 151.752 96.2658C150.204 99.7738 150.585 103.79 150.788 107.629C152.463 137.574 150.407 186.076 37.8906 333.184L129.371 355.605Z" fill="#C0A091"/>
<path d="M172.787 78.4738C173.98 83.1003 172.458 87.7014 168.854 90.8026C167.712 91.7686 169.362 93.4209 170.504 92.455C174.741 88.8453 176.416 83.2274 175.046 77.8637C174.665 76.4147 172.407 77.0248 172.787 78.4738Z" fill="#4F3422"/>
<path d="M187.531 80.3544C189.333 83.9641 188.343 88.5143 185.12 91.0055C183.953 91.8952 185.12 93.9289 186.288 93.0137C190.551 89.7091 191.921 84.0403 189.536 79.185C188.876 77.8378 186.871 79.0071 187.531 80.3544Z" fill="#4F3422"/>
<path d="M157.183 91.8691C158.072 95.3263 157.437 98.8852 155.432 101.859C154.443 103.334 153.123 104.528 151.601 105.444C150.789 105.927 150.002 106.079 149.545 106.943C149.266 107.503 149.393 108.189 149.951 108.545C150.027 108.596 150.129 108.647 150.205 108.697C150.763 109.053 151.448 108.799 151.804 108.291C151.854 108.24 151.88 108.164 151.931 108.113C152.793 106.893 150.763 105.723 149.926 106.943C149.875 106.994 149.85 107.071 149.799 107.121C150.332 106.994 150.865 106.842 151.398 106.715C151.322 106.664 151.22 106.613 151.144 106.562C151.271 107.096 151.423 107.63 151.55 108.164C151.981 107.299 154.468 106.41 155.356 105.571C156.651 104.351 157.716 102.851 158.478 101.249C159.975 98.0971 160.279 94.6654 159.416 91.3099C159.061 89.8101 156.828 90.4202 157.183 91.8691Z" fill="#4F3422"/>
<path d="M166.852 110.019C166.877 117.111 166.446 124.152 165.482 131.168C165.279 132.643 167.512 133.253 167.715 131.779C168.679 124.559 169.187 117.314 169.161 109.993C169.161 108.519 166.827 108.519 166.852 110.019Z" fill="#4F3422"/>
<path d="M182.812 99.0589C183.675 110.879 184.537 122.7 185.426 134.52C185.527 135.995 187.862 136.02 187.735 134.52C186.872 122.7 186.009 110.879 185.121 99.0589C185.02 97.5845 182.71 97.5845 182.812 99.0589Z" fill="#4F3422"/>
<path d="M154.01 143.292C156.37 143.393 158.653 143.902 160.861 144.791C162.257 145.351 162.84 143.088 161.47 142.554C159.059 141.588 156.598 141.08 154.01 140.978C152.512 140.902 152.512 143.241 154.01 143.292Z" fill="white"/>
<path d="M170.936 146.062C173.677 146.647 176.418 146.901 179.209 146.825C180.706 146.774 180.706 144.461 179.209 144.512C176.621 144.588 174.083 144.385 171.545 143.825C170.099 143.52 169.49 145.757 170.936 146.062Z" fill="white"/>
<path d="M189.893 146.344C192.913 146.624 195.932 146.903 198.952 147.183C200.449 147.31 200.424 144.997 198.952 144.87C195.932 144.59 192.913 144.31 189.893 144.031C188.421 143.878 188.421 146.191 189.893 146.344Z" fill="white"/>
<path d="M220.368 153.565C222.779 154.76 225.317 155.421 228.007 155.548C229.504 155.624 229.504 153.286 228.007 153.235C225.748 153.133 223.566 152.574 221.536 151.582C220.216 150.896 219.023 152.904 220.368 153.565Z" fill="white"/>
<path d="M216.942 114.617C213.339 116.219 209.913 112.762 211.03 109.152C211.461 107.728 209.228 107.093 208.797 108.542C207.046 114.287 212.806 118.99 218.135 116.626C219.48 116.016 218.287 114.033 216.942 114.617Z" fill="#4F3422"/>
<path d="M185.324 274.588L103.03 225.934L87.6016 247.973C115.236 264.801 142.414 282.316 170.2 298.661L185.324 274.588Z" fill="white"/>
<path d="M87.6278 248L0 370.85L87.6278 427.48L170.226 298.688C142.44 282.343 115.237 264.828 87.6278 248Z" fill="#C2B1FF"/>
<path d="M153.428 302.654C153.428 305.247 151.322 307.357 148.734 307.357C146.145 307.357 144.039 305.247 144.039 302.654C144.039 300.061 146.145 297.951 148.734 297.951C151.322 297.951 153.428 300.061 153.428 302.654Z" fill="#4F3422"/>
<path d="M144.038 320.297C144.038 322.889 141.931 324.999 139.343 324.999C136.755 324.999 134.648 322.889 134.648 320.297C134.648 317.704 136.755 315.594 139.343 315.594C141.931 315.594 144.038 317.704 144.038 320.297Z" fill="#4F3422"/>
<path d="M335.423 62.8365C341.615 48.8807 351.004 36.7552 362.981 27.2988C364.149 26.3837 362.499 24.7314 361.332 25.6465C349.228 35.2046 339.661 47.5334 333.419 61.6418C332.809 63.0145 334.814 64.2092 335.423 62.8365Z" fill="white"/>
<path d="M375.213 20.0293C379.35 18.1736 383.664 16.928 388.13 16.2417C389.602 16.0129 388.967 13.7759 387.521 14.0047C382.826 14.7165 378.36 16.0892 374.046 18.0465C372.676 18.6312 373.843 20.6394 375.213 20.0293Z" fill="white"/>
<path d="M211.082 28.3677C220.725 18.7334 233.971 13.9035 247.548 15.022C249.045 15.1491 249.019 12.8104 247.548 12.7087C233.413 11.5394 219.482 16.6743 209.433 26.7154C208.392 27.783 210.042 29.4099 211.082 28.3677Z" fill="white"/>
</svg>
